<?xml version="1.0" encoding="UTF-8" standalone="no"?>
<!-- Created with Inkscape (http://www.inkscape.org/) -->

<svg
   xmlns:dc="http://purl.org/dc/elements/1.1/"
   xmlns:cc="http://creativecommons.org/ns#"
   xmlns:rdf="http://www.w3.org/1999/02/22-rdf-syntax-ns#"
   xmlns:svg="http://www.w3.org/2000/svg"
   xmlns="http://www.w3.org/2000/svg"
   xmlns:sodipodi="http://sodipodi.sourceforge.net/DTD/sodipodi-0.dtd"
   xmlns:inkscape="http://www.inkscape.org/namespaces/inkscape"
   width="120"
   height="120"
   viewBox="0 0 31.750001 31.750001"
   version="1.1"
   id="svg8"
   inkscape:version="0.92.4 (5da689c313, 2019-01-14)"
   sodipodi:docname="logo.svg">
  <defs
     id="defs2" />
  <sodipodi:namedview
     id="base"
     pagecolor="#ffffff"
     bordercolor="#666666"
     borderopacity="1.0"
     inkscape:pageopacity="0.0"
     inkscape:pageshadow="2"
     inkscape:zoom="0.98994949"
     inkscape:cx="-128.86522"
     inkscape:cy="205.3702"
     inkscape:document-units="mm"
     inkscape:current-layer="g843"
     showgrid="false"
     inkscape:window-width="1920"
     inkscape:window-height="1017"
     inkscape:window-x="-8"
     inkscape:window-y="-8"
     inkscape:window-maximized="1"
     units="px" />
  <metadata
     id="metadata5">
    <rdf:RDF>
      <cc:Work
         rdf:about="">
        <dc:format>image/svg+xml</dc:format>
        <dc:type
           rdf:resource="http://purl.org/dc/dcmitype/StillImage" />
        <dc:title></dc:title>
      </cc:Work>
    </rdf:RDF>
  </metadata>
  <g
     inkscape:label="Layer 1"
     inkscape:groupmode="layer"
     id="layer1"
     transform="translate(0,-265.24999)">
    <g
       id="g843"
       transform="translate(-78.975602,-101.958)">
      <path
         style="fill:#0d0d0d;stroke-width:0.08466666"
         d="m 102.00103,395.86442 c -1.83938,-0.6211 -3.526143,-1.19471 -3.748343,-1.2747 -0.67777,-0.24399 -1.03054,-0.88894 -2.17731,-3.9806 -1.11837,-3.0151 -1.6038,-3.84881 -2.31914,-3.983 -0.4497,-0.0844 -0.50136,10e-4 -0.27381,0.45264 0.56377,1.11885 1.10239,2.95315 1.32256,4.50403 0.12277,0.86478 0.0957,1.24304 -0.0853,1.19149 -2.32643,-0.66258 -4.32118,-0.8003 -6.70983,-0.46323 -0.44484,0.0628 -0.50838,-0.0156 -0.21952,-0.27064 0.41217,-0.36397 1.53068,-1.79383 1.74569,-2.23163 0.21563,-0.43906 0.23013,-0.53862 0.2225,-1.52799 -0.005,-0.60027 -0.0899,-1.62635 -0.19702,-2.37067 -0.30283,-2.10429 -0.23221,-3.38024 0.24706,-4.4637 0.23182,-0.52407 0.0652,-0.37244 -0.19532,0.17771 -0.24723,0.52217 -0.48372,1.56424 -0.47708,2.10225 0.002,0.19987 0.0534,0.66225 0.11327,1.0275 0.11929,0.72831 0.0838,0.80536 -0.30294,0.65831 -0.28813,-0.10955 -0.34134,-0.48545 -0.23702,-1.67425 0.18608,-2.1205 1.03582,-3.9036 2.39033,-5.0159 0.55913,-0.45915 1.68324,-1.07932 2.39221,-1.31978 0.67649,-0.22945 2.20168,-0.46686 2.99474,-0.46617 2.08395,0.002 4.122383,0.80837 5.881583,2.32715 0.52931,0.45697 0.57336,0.60731 0.30632,1.04532 l -0.17239,0.28277 -0.69512,-0.70876 c -0.72596,-0.74021 -1.37969,-1.22055 -2.055319,-1.51015 -0.572764,-0.24552 -0.549789,-0.15368 0.0402,0.1608 0.672529,0.35845 1.400149,0.91353 1.919449,1.46429 0.49264,0.52248 1.1362,1.44332 1.1362,1.62573 0,0.2057 -0.3731,0.29734 -5.078403,1.24737 -4.26288,0.8607 -4.02462,0.95489 0.5064,0.20018 1.814543,-0.30223 3.682063,-0.6669 5.000473,-0.97642 0.62912,-0.1477 0.79058,-0.16135 0.84608,-0.0716 0.0874,0.14141 0.20713,0.81892 0.49995,2.82897 0.19733,1.35451 0.21691,1.63707 0.12397,1.78848 -0.0985,0.16047 -0.0288,0.36538 0.64783,1.90416 0.41702,0.94839 0.73979,1.77235 0.71728,1.83102 -0.0267,0.0696 -0.21987,0.10667 -0.55591,0.10667 -0.61933,0 -0.53823,0.1437 -1.18761,-2.10434 -0.24689,-0.8547 -0.50893,-1.62455 -0.58231,-1.71078 -0.099,-0.11637 -0.46083,-0.21327 -1.40342,-0.37585 -0.6985,-0.12049 -1.93675,-0.36573 -2.751668,-0.54497 -0.814915,-0.17925 -1.509965,-0.30887 -1.544535,-0.28804 -0.11276,0.0679 0.26223,0.68351 0.57176,0.93865 0.30937,0.25501 1.198354,0.56135 3.766773,1.29803 0.67522,0.19366 1.2782,0.39947 1.33996,0.45736 0.27349,0.25632 1.01934,3.62102 1.53751,6.93603 0.24837,1.58894 0.2673,1.91861 0.10969,1.90936 -0.0364,-0.002 -1.57111,-0.51206 -3.41049,-1.13315 z m 2.15477,0.2178 c -0.13173,-0.11885 -1.27349,-0.56692 -3.4925,-1.37062 -1.150198,-0.41658 -2.186523,-0.82732 -2.302943,-0.91276 -0.3127,-0.22948 -0.77438,-1.20689 -1.44669,-3.06272 -0.95902,-2.64728 -1.70413,-4.01946 -2.36942,-4.36349 -0.43647,-0.22571 -0.57836,-0.11226 -0.18508,0.14799 0.19075,0.12623 0.44412,0.35707 0.56304,0.51298 0.35457,0.46487 0.93967,1.78526 1.61601,3.64686 0.7157,1.96992 1.05363,2.75646 1.3528,3.14869 0.2369,0.3106 0.69255,0.49369 3.983013,1.60049 2.05912,0.69263 2.45009,0.80444 2.28177,0.65258 z m -10.238313,-3.95388 c -0.36561,-0.27638 -1.76226,-0.59074 -3.14166,-0.70712 -0.44045,-0.0372 -0.82262,-0.0894 -0.84925,-0.11599 -0.0266,-0.0266 0.0979,-0.34485 0.27685,-0.70716 0.31648,-0.64095 0.32514,-0.68286 0.32085,-1.55152 -0.004,-0.83183 -0.15299,-1.78186 -0.2792,-1.78169 -0.0303,4e-5 -0.0556,0.48888 -0.0563,1.08631 -0.001,1.07934 -0.003,1.09022 -0.31198,1.71506 -0.17093,0.34586 -0.52282,0.86314 -0.78197,1.14951 -0.25915,0.28637 -0.47119,0.55279 -0.47119,0.59203 0,0.0392 0.84773,0.0758 1.88383,0.0812 1.56087,0.008 2.00722,0.0389 2.6035,0.17883 0.91953,0.21585 1.02217,0.22355 0.80647,0.0605 z m 7.668763,-11.69603 c -0.70753,-0.85948 -2.235548,-1.80631 -3.390423,-2.10084 -0.77427,-0.19747 -1.89074,-0.25152 -2.71274,-0.13133 -1.15765,0.16927 -2.66867,0.72215 -3.21954,1.17803 -0.17142,0.14186 -0.0287,0.11236 0.76281,-0.15772 1.66195,-0.56708 3.08901,-0.71353 4.52042,-0.46391 1.35599,0.23646 2.542803,0.75777 3.655353,1.6056 0.32298,0.24613 0.60115,0.43503 0.61815,0.41977 0.017,-0.0153 -0.0883,-0.17258 -0.23403,-0.3496 z m -19.564163,15.16156 c 0.001,-0.0408 0.15582,-0.30268 0.34336,-0.58208 0.73451,-1.09434 1.33509,-2.60554 1.51757,-3.81858 0.0553,-0.36782 0.11517,-0.74859 0.13297,-0.84617 0.0268,-0.14684 0.38651,-0.31122 2.0872,-0.95377 1.13016,-0.427 2.08341,-0.77579 2.11833,-0.77509 0.22884,0.005 -0.16279,1.40211 -0.70028,2.49894 -0.87737,1.79041 -2.36293,3.22039 -4.27771,4.11769 -0.72704,0.3407 -1.22559,0.48726 -1.22144,0.35906 z m 1.8671,-6.94647 c -0.18602,-0.67372 -0.28532,-1.21701 -0.23216,-1.27018 0.0726,-0.0725 4.44168,-1.12008 4.69149,-1.12482 0.17967,-0.003 0.1905,0.0299 0.1905,0.58607 0,0.4873 -0.0272,0.60426 -0.15677,0.6736 -0.22509,0.12046 -4.1634,1.44605 -4.29621,1.44605 -0.0611,0 -0.14966,-0.13983 -0.19685,-0.31072 z m -0.65355,-2.44095 c -0.0805,-0.20985 0.0351,-0.38171 0.34341,-0.51054 0.41737,-0.17439 0.43966,-0.2776 0.0728,-0.33724 -0.54492,-0.0886 -0.67627,-0.17552 -0.72394,-0.47908 -0.025,-0.15944 -0.002,-0.3228 0.0529,-0.37621 0.0829,-0.0805 3.53605,-0.35699 5.00783,-0.40095 l 0.42334,-0.0126 0.043,0.54102 c 0.0242,0.30403 0.006,0.59154 -0.0423,0.65635 -0.0753,0.10177 -4.55541,1.04265 -4.97749,1.04533 -0.083,5.1e-4 -0.17276,-0.0562 -0.19956,-0.12604 z m -0.48217,-2.89278 c -0.031,-0.031 -0.0564,-0.42642 -0.0564,-0.87863 0,-0.58663 0.0327,-0.84934 0.11421,-0.91697 0.0853,-0.0708 0.58429,-0.0321 1.9685,0.15245 1.01986,0.13598 2.23529,0.28931 2.70096,0.34074 1.3373,0.14767 1.24895,0.098 1.18059,0.66341 -0.0322,0.26608 -0.0966,0.53141 -0.14308,0.58962 -0.0646,0.0808 -0.74851,0.10583 -2.89644,0.10583 -1.54652,0 -2.83725,-0.0254 -2.8683,-0.0564 z m 3.05148,-2.56087 c -1.48045,-0.31531 -2.73122,-0.61278 -2.77948,-0.66104 -0.0948,-0.0948 0.20366,-1.24622 0.34587,-1.33411 0.0421,-0.026 0.41126,-0.009 0.82039,0.0372 0.40913,0.0465 0.77568,0.0527 0.81456,0.0138 0.0389,-0.0389 -0.24573,-0.20677 -0.63245,-0.3731 -0.64724,-0.27837 -0.96383,-0.56883 -0.62001,-0.56883 0.13643,0 5.5952,2.30578 5.69498,2.40555 0.0285,0.0285 -0.0573,0.27991 -0.19059,0.55876 -0.22002,0.46034 -0.26623,0.50647 -0.50193,0.50101 -0.14278,-0.003 -1.47088,-0.26399 -2.95134,-0.57931 z m 2.94574,-1.62503 c -3.3351,-1.84725 -4.36033,-2.4612 -4.36033,-2.61114 0,-0.24114 1.189,-1.86718 1.36533,-1.86718 0.0362,0 0.95394,0.77153 2.03944,1.7145 1.08549,0.94298 2.15413,1.86197 2.37476,2.0422 0.22062,0.18024 0.40113,0.36681 0.40113,0.41462 0,0.15984 -0.60212,0.82402 -0.7465,0.82343 -0.0784,-3.4e-4 -0.5616,-0.23272 -1.07383,-0.51643 z m 14.113943,0.24608 c -0.0559,-0.0559 -0.1016,-0.1736 -0.1016,-0.2616 0,-0.25249 1.48412,-1.66464 2.36775,-2.25291 0.82687,-0.55049 2.69793,-1.53255 2.91987,-1.53255 0.14756,0 0.80838,0.84513 0.80838,1.03384 0,0.0913 -0.15609,0.16012 -0.52917,0.23339 -1.85767,0.36487 -3.63562,1.27411 -4.70379,2.40554 -0.46185,0.48919 -0.58567,0.55006 -0.76144,0.37429 z m -0.97318,-0.79197 c -0.17256,-0.11726 -0.31375,-0.2612 -0.31375,-0.31987 0,-0.13318 0.60996,-1.12706 1.24897,-2.03509 0.5762,-0.81879 2.37421,-3.07711 2.62885,-3.30189 0.1762,-0.15553 0.18428,-0.15396 0.50014,0.0974 0.48776,0.38818 0.74419,0.68875 0.65435,0.76698 -0.0436,0.038 -0.41981,0.29228 -0.83596,0.5651 -0.41615,0.27283 -0.71761,0.50907 -0.66991,0.52497 0.0477,0.0159 0.42629,-0.10055 0.84131,-0.25877 1.02546,-0.39096 1.25111,-0.43445 1.38943,-0.26778 0.14306,0.17238 0.13273,0.18149 -0.93132,0.82071 -1.33883,0.80429 -2.0986,1.41503 -3.19971,2.57207 l -0.99864,1.04937 z m -10.854763,-0.27189 c -0.29967,-0.22016 -4.10633,-4.68138 -4.10633,-4.81242 0,-0.12546 0.97265,-0.96478 1.11805,-0.96478 0.0513,0 0.30365,0.19899 0.56081,0.44219 0.54928,0.51949 0.64893,0.43444 0.269,-0.2296 -0.14682,-0.25663 -0.23559,-0.46592 -0.19724,-0.4651 0.0909,0.002 0.946,1.31623 2.22995,3.42751 0.56637,0.93133 1.0645,1.72952 1.10693,1.77376 0.16333,0.17025 0.0575,0.35306 -0.35781,0.61807 -0.46224,0.29495 -0.49375,0.30559 -0.62336,0.21037 z m 9.031403,-0.7257 c -0.571058,-0.24254 -0.617188,-0.28068 -0.577778,-0.47774 0.0567,-0.28358 2.664468,-6.02366 2.801378,-6.16628 0.0871,-0.0907 0.27609,-0.0246 1.04267,0.36527 1.39153,0.70763 1.35919,0.56555 0.45065,1.97993 -1.24123,1.9323 -2.42644,3.84237 -2.62168,4.22508 -0.11384,0.22313 -0.23646,0.3527 -0.32819,0.34678 -0.0805,-0.005 -0.42572,-0.12807 -0.76705,-0.27304 z m -7.453623,-0.41865 c -0.0944,-0.1528 -0.78313,-1.47592 -1.53044,-2.94027 -1.28772,-2.52328 -1.35103,-2.66996 -1.21105,-2.80576 0.20089,-0.19488 1.76817,-0.85245 1.94884,-0.81766 0.10896,0.021 0.41278,0.80809 1.21958,3.15956 0.59096,1.72238 1.06521,3.16694 1.05388,3.21012 -0.018,0.0686 -1.08438,0.47182 -1.24784,0.47182 -0.0337,0 -0.13853,-0.12501 -0.23297,-0.27781 z m 5.1593,-0.23763 c -0.20621,-0.0405 -0.41427,-0.11288 -0.46235,-0.16096 -0.10109,-0.10109 0.91073,-6.75458 1.04808,-6.89193 0.14727,-0.14727 2.625533,0.36241 2.625533,0.53997 0,0.17081 -2.274053,6.34375 -2.394243,6.4992 -0.0916,0.11842 -0.26824,0.12138 -0.81702,0.0137 z m -2.79713,-0.11956 c -0.0648,-0.0816 -0.99629,-5.5983 -1.0822,-6.40928 -0.0387,-0.36552 -0.0258,-0.40159 0.15872,-0.44259 0.47047,-0.10455 1.5686,-0.21779 2.11199,-0.21779 h 0.58655 l -0.004,0.65616 c -0.009,1.4109 -0.22999,6.29491 -0.28745,6.35252 -0.10046,0.10074 -1.40916,0.15454 -1.48342,0.061 z"
         id="path845"
         inkscape:connector-curvature="0" />
    </g>
  </g>
</svg>
